# xmcd CD database file
#
# Track frame offsets:
#	150
#	23052
#	45807
#	63680
#	74385
#	92485
#	101855
#	119602
#	123095
#
# Disc length: 1914 seconds
#
# Revision: 0
# Processed by: cddbd v1.5.1PL0 Copyright (c) Steve Scherf et al.
# Submitted via: CDex 1.51
#
DISCID=74077809
DTITLE=高橋良明 - 夢で逢えるさ! (DISC2)
DYEAR=1989
DGENRE=Pop
TTITLE0=もうちょっとでヒーロー
TTITLE1=君にノイローゼ
TTITLE2=夏物語へようこそ!
TTITLE3=メッセージ (別バージョン)
TTITLE4=22.5 cm のシンデレラ
TTITLE5=ニッポン放送「一輝と良明ドン・マイ・フレンド」未オンエアー分
TTITLE6=TSURAIZE
TTITLE7=レコーディングNGテイク集!
TTITLE8=八月のハーフ・ムーン
EXTD=YEAR: 1989
EXTT0=
EXTT1=
EXTT2=
EXTT3=
EXTT4=
EXTT5=
EXTT6=
EXTT7=
EXTT8=
PLAYORDER=
